<svg width="143" height="33" viewBox="0 0 143 33" fill="none" xmlns="http://www.w3.org/2000/svg">
<path fill-rule="evenodd" clip-rule="evenodd" d="M28.5089 16.9043H30.8513V20.2852H33.0401V11.833H30.8513V15.0239H28.5089V11.833H26.3201V20.2852H28.5089V16.9043Z" fill="#005C65"/>
<path fill-rule="evenodd" clip-rule="evenodd" d="M34.72 20.2852H36.96V11.833H34.72V20.2852Z" fill="#005C65"/>
<path fill-rule="evenodd" clip-rule="evenodd" d="M48.2567 14.2019L49.0121 16.8361H47.4929L48.2567 14.2019ZM46.4653 20.2852L46.9889 18.5985H49.507L50.0233 20.2852H52.36L49.7019 11.833H47.233L44.52 20.2852H46.4653Z" fill="#005C65"/>
<path fill-rule="evenodd" clip-rule="evenodd" d="M56.3766 14.2019L57.1321 16.8361H55.613L56.3766 14.2019ZM55.109 18.5985H57.6269L58.1434 20.2852H60.48L57.8221 11.833H55.3529L52.64 20.2852H54.5851L55.109 18.5985Z" fill="#005C65"/>
<path fill-rule="evenodd" clip-rule="evenodd" d="M42.8882 15.2162C42.715 15.4115 42.4055 15.5095 41.9599 15.5095H40.8209V13.5765H41.9538C42.363 13.5765 42.6643 13.6639 42.8579 13.8384C43.0513 14.0131 43.1481 14.2479 43.1481 14.543C43.1481 14.7962 43.0613 15.0204 42.8882 15.2162ZM45.36 14.4735C45.36 13.871 45.1995 13.3616 44.8789 12.9452C44.5579 12.5287 44.1927 12.2391 43.7831 12.0767C43.3735 11.9143 42.7944 11.833 42.046 11.833H38.64V20.2852H40.8783V17.2341H42.1212C42.7273 17.2341 43.1772 17.1962 43.4709 17.1204C43.7645 17.0444 44.0676 16.8905 44.3801 16.6589C44.6927 16.4269 44.9344 16.1099 45.1044 15.7076C45.2747 15.3052 45.36 14.894 45.36 14.4735Z" fill="#005C65"/>
<path fill-rule="evenodd" clip-rule="evenodd" d="M18.5236 25.3564H18.9913L18.9614 27.0911H18.9618L18.8981 30.7644L18.9165 30.7878C18.9909 30.9071 19.04 31.1085 19.04 31.3373C19.04 31.566 18.9909 31.7674 18.9165 31.8866L18.878 31.9361L18.8769 31.9996L18.7599 32.3999L18.638 31.9996L18.6368 31.9295L18.6034 31.8866C18.529 31.7674 18.48 31.566 18.48 31.3373C18.48 31.1085 18.529 30.9071 18.6034 30.7878L18.6169 30.7707L18.5708 28.0981H18.574L18.5564 27.0964H18.5536L18.5236 25.3564Z" fill="#005C65"/>
<path fill-rule="evenodd" clip-rule="evenodd" d="M17.1836 24.793L17.2131 24.808C17.3484 24.8953 17.5321 25.0229 17.7218 25.088C17.7693 25.1042 17.8301 25.1374 17.8952 25.1736L17.903 25.1778L17.8601 25.1974C17.8301 25.2124 17.7601 25.2495 17.741 25.2624L17.7272 25.2736L17.7259 25.2757C17.6895 25.3454 17.593 25.4131 17.5511 25.5723C17.5092 25.7315 17.4673 25.9327 17.4746 26.231C17.4819 26.5292 17.5446 27.0423 17.5773 27.3854C17.6099 27.7285 17.632 27.9937 17.6705 28.2901C17.709 28.5866 17.7466 28.9145 17.8083 29.1641C17.87 29.4137 17.9286 29.6284 18.0406 29.7874C18.1525 29.9464 18.4782 30.0794 18.48 30.1178C18.4818 30.1563 18.2006 30.1545 18.0866 30.1178C17.9725 30.0811 17.889 30.0064 17.7958 29.8976C17.7027 29.7886 17.598 29.609 17.5277 29.4643C17.4574 29.3193 17.4265 29.2234 17.3739 29.0285C17.3214 28.8337 17.2968 28.7076 17.2123 28.2952C17.1278 27.883 16.9357 26.9928 16.8672 26.5547C16.7987 26.1167 16.7971 25.885 16.8013 25.6666C16.8055 25.4484 16.8739 25.3258 16.8923 25.2451C16.9107 25.1645 16.9064 25.2008 16.9116 25.1829L16.9233 25.1475C16.9233 25.1473 16.9233 25.1471 16.9233 25.1471C16.937 25.0912 16.9418 25.1089 16.9876 25.0473C17.022 25.0011 17.0761 24.9183 17.1363 24.8453L17.1836 24.793Z" fill="#005C65"/>
<path fill-rule="evenodd" clip-rule="evenodd" d="M20.7335 24.5242L20.7575 24.5372C20.8145 24.5812 20.7385 24.5852 20.7335 24.5242Z" fill="#005C65"/>
<path fill-rule="evenodd" clip-rule="evenodd" d="M17.346 21.7198L17.4087 21.7238C17.4625 21.7368 17.4681 21.7528 17.3583 21.7228L17.346 21.7198Z" fill="#005C65"/>
<path fill-rule="evenodd" clip-rule="evenodd" d="M18.48 21.6938H19.04L19.0038 23.9478H18.5162L18.48 21.6938Z" fill="#005C65"/>
<path fill-rule="evenodd" clip-rule="evenodd" d="M16.5296 21.4138C16.6363 21.4269 16.7614 21.5134 16.9051 21.5502L17.5784 21.7258L17.6074 21.734L17.5887 21.7327C17.5765 21.734 17.5639 21.7382 17.5552 21.7477C17.5204 21.7861 17.443 21.8556 17.3694 21.9562C17.2959 22.0567 17.1702 22.2378 17.114 22.3511C17.0579 22.4645 17.0483 22.5193 17.0328 22.6363C17.0173 22.7534 16.9844 22.907 17.0212 23.0531C17.0579 23.1995 17.1237 23.3713 17.2533 23.514C17.383 23.6565 17.5823 23.8046 17.799 23.9089C18.0157 24.013 18.2962 24.0807 18.5536 24.1392C18.8109 24.1978 19.0721 24.1995 19.3431 24.2599C19.6138 24.3202 19.9379 24.3658 20.1788 24.5013L20.2659 24.5596L20.2666 24.5588C20.3142 24.553 20.488 24.6997 20.577 24.7818C20.666 24.8641 20.7519 24.9903 20.8006 25.0518C20.8493 25.1134 20.8544 25.0957 20.8689 25.1516C20.8689 25.1516 20.8691 25.1518 20.8691 25.152L20.8814 25.1873C20.8869 25.2052 20.8824 25.1689 20.9018 25.2495C20.9214 25.3301 20.994 25.4526 20.9986 25.6706C21.0029 25.8888 21.0014 26.1203 20.9286 26.5579C20.8557 26.9956 20.6517 27.885 20.562 28.2969C20.4722 28.7089 20.4462 28.8349 20.3902 29.0295C20.3343 29.2243 20.3016 29.3201 20.2269 29.4649C20.1522 29.6095 20.0409 29.7889 19.9421 29.8978C19.8432 30.0065 19.7544 30.0812 19.6332 30.1179C19.5121 30.1545 19.2134 30.1563 19.2153 30.1179C19.2172 30.0795 19.5631 29.9466 19.6821 29.7878C19.801 29.6289 19.8633 29.4143 19.9289 29.165C19.9943 28.9156 20.0343 28.588 20.0752 28.2917C20.116 27.9956 20.1396 27.7307 20.1742 27.3879C20.209 27.045 20.2756 26.5325 20.2834 26.2345C20.291 25.9365 20.2465 25.7354 20.202 25.5764C20.1575 25.4173 20.055 25.3496 20.0164 25.2801L20.0149 25.278L20.0004 25.2668C19.9801 25.2538 19.9057 25.2168 19.8738 25.2018C19.746 25.1415 19.5591 25.0769 19.3779 25.0387C19.1965 25.0007 18.7858 24.973 18.7858 24.973C18.6155 24.9547 18.5071 24.9509 18.3562 24.9291C18.2053 24.9072 18.0602 24.8926 17.8802 24.8413C17.7003 24.7901 17.4817 24.7244 17.2766 24.6219C17.0715 24.5195 16.8219 24.3751 16.6497 24.227C16.4775 24.079 16.3459 23.8979 16.2434 23.7333C16.1408 23.5687 16.0808 23.4281 16.0344 23.2397C15.988 23.0514 15.9454 22.8192 15.9647 22.6035C15.9841 22.3876 16.075 22.1354 16.1505 21.9452C16.2259 21.7551 16.3033 21.4955 16.4291 21.4296C16.4605 21.4132 16.494 21.4094 16.5296 21.4138Z" fill="#005C65"/>
<path fill-rule="evenodd" clip-rule="evenodd" d="M18.48 18.0312H19.32L19.2766 20.2852H18.5232L18.48 18.0312Z" fill="#005C65"/>
<path fill-rule="evenodd" clip-rule="evenodd" d="M16.9094 17.9885C16.8692 18.0178 16.7353 18.0983 16.6684 18.1421C16.6015 18.186 16.5613 18.2025 16.5077 18.2519C16.4542 18.3012 16.3949 18.3671 16.3471 18.4384C16.2993 18.5097 16.2553 18.581 16.2208 18.6798C16.1864 18.7785 16.1577 18.9212 16.1405 19.0309C16.1233 19.1405 16.1061 19.2322 16.1176 19.3382C16.129 19.4441 16.1386 19.5631 16.2094 19.6673C16.2801 19.7714 16.3891 19.8758 16.5422 19.9636C16.6952 20.0512 16.8692 20.1318 17.1274 20.194C17.3856 20.2562 17.8102 20.3111 18.0914 20.3366C18.3726 20.3622 18.5504 20.3257 18.8145 20.3476C19.0784 20.3694 19.4169 20.4006 19.675 20.4683C19.9333 20.536 20.1551 20.6401 20.3635 20.7536C20.5722 20.8669 20.7882 21.0169 20.9259 21.1486C21.0637 21.2803 21.0981 21.3845 21.1898 21.5436C21.2818 21.7027 21.4194 21.9496 21.4767 22.1032C21.5055 22.18 21.5237 22.2486 21.5327 22.3089L21.5363 22.3526L21.5521 22.4104C21.5547 22.4319 21.5553 22.4553 21.5571 22.4872C21.5609 22.5513 21.5609 22.6444 21.5571 22.7286C21.5532 22.8126 21.5532 22.8987 21.5342 22.9919C21.515 23.0852 21.4959 23.1656 21.4423 23.2882C21.3887 23.4106 21.3066 23.5899 21.2128 23.7271C21.1192 23.8642 21.0101 23.9885 20.8801 24.1111C20.75 24.2337 20.5147 24.3964 20.4325 24.4622C20.4118 24.4787 20.4021 24.4911 20.3979 24.5002L20.3955 24.5113L20.3866 24.5061C20.335 24.4824 20.2011 24.3727 20.1225 24.3196C20.0442 24.2666 20.0135 24.2299 19.916 24.1879C19.8186 24.1459 19.6445 24.1001 19.5374 24.0672C19.4302 24.0343 19.3346 24.007 19.2735 23.9904C19.2122 23.9741 19.1549 23.9758 19.1701 23.9686C19.1855 23.9611 19.2868 23.9686 19.3652 23.9465C19.4436 23.9246 19.5355 23.888 19.6406 23.8368C19.7459 23.7857 19.8912 23.7051 19.9964 23.6393C20.1015 23.5736 20.1972 23.5114 20.2718 23.4418C20.3464 23.3723 20.3981 23.3084 20.444 23.2223C20.4898 23.1364 20.5301 23.0212 20.5472 22.9261C20.5645 22.8311 20.5626 22.7524 20.5472 22.6518C20.5397 22.6014 20.5261 22.5478 20.51 22.4923L20.4835 22.4097L20.4829 22.4089C20.4361 22.3047 20.4024 22.1648 20.3406 22.0703C20.2584 21.9441 20.1742 21.8344 20.0423 21.7411C19.9103 21.6478 19.7267 21.5693 19.5489 21.5107C19.371 21.4522 19.172 21.4064 18.975 21.39C18.778 21.3735 18.625 21.4119 18.3668 21.4119C18.1086 21.4119 17.7127 21.421 17.4258 21.39C17.1389 21.3589 16.8903 21.2967 16.6454 21.2254C16.4006 21.1541 16.1711 21.0809 15.9569 20.9619C15.7427 20.8431 15.5093 20.6531 15.3602 20.5122C15.211 20.3713 15.1421 20.2543 15.0618 20.1172C14.9814 19.98 14.9145 19.8593 14.8782 19.6893C14.8418 19.5192 14.8342 19.2996 14.8437 19.0968C14.8533 18.8937 14.8418 18.7346 14.9355 18.4713C15.0293 18.208 15.2301 17.6575 15.4061 17.5167C15.45 17.4815 15.4978 17.4678 15.5475 17.4678C15.6965 17.4677 15.8622 17.5908 15.9913 17.6264C16.1634 17.674 16.2744 17.7508 16.4389 17.802C16.6034 17.8532 16.8998 17.9062 16.9782 17.9337" fill="#005C65"/>
<path fill-rule="evenodd" clip-rule="evenodd" d="M18.2 13.5234H19.04L18.9977 16.0591H18.2423L18.2 13.5234Z" fill="#005C65"/>
<path fill-rule="evenodd" clip-rule="evenodd" d="M14.8745 12.96L14.8831 12.9634C15.0638 13.0595 15.5395 13.2134 15.8777 13.3095C16.1736 13.3936 16.5152 13.4679 16.7959 13.5196L16.8688 13.5325L16.7043 13.5878C16.3747 13.7136 16.0627 13.8814 15.8762 14.0789C15.6274 14.3423 15.5067 14.5771 15.4835 14.8258C15.4603 15.0745 15.5696 15.3681 15.7367 15.5712C15.9038 15.7743 16.2414 15.9238 16.4859 16.0444C16.7304 16.165 17.1084 16.2528 17.2038 16.2947L17.2062 16.2959L17.2034 16.3006L17.2141 16.3034L17.2303 16.3074L17.2062 16.2959L17.2066 16.2953C17.2068 16.2936 17.207 16.2923 17.211 16.2901C17.2166 16.287 17.2478 16.3015 17.2751 16.3164L17.2821 16.3203L17.3734 16.3431C17.4283 16.3557 17.4845 16.367 17.5409 16.3754C17.7665 16.4089 18.0287 16.422 18.3044 16.4425L19.1951 16.4984C19.1951 16.4984 19.6791 16.4965 19.9587 16.5431C20.2382 16.5897 20.6316 16.6978 20.8726 16.7779C21.1137 16.8581 21.2389 16.9215 21.4047 17.024C21.5705 17.1265 21.7247 17.2514 21.8674 17.393C22.0101 17.5346 22.1528 17.6986 22.2608 17.8738C22.3688 18.049 22.4478 18.241 22.5153 18.4442C22.5827 18.6473 22.6445 18.8859 22.6657 19.0927C22.6867 19.2997 22.6888 19.4655 22.6424 19.6854C22.5962 19.9053 22.5191 20.2147 22.3879 20.4123C22.2568 20.6099 21.9927 20.7589 21.8559 20.8708C21.7191 20.9826 21.6207 21.0423 21.5667 21.0832C21.5127 21.1242 21.584 21.1465 21.532 21.1167C21.532 21.1167 21.3835 20.9975 21.2542 20.9043C21.1252 20.8112 20.9208 20.6434 20.7569 20.5576C20.593 20.4719 20.3559 20.4196 20.271 20.39C20.271 20.39 20.2208 20.39 20.2479 20.3788C20.2479 20.3788 20.296 20.3788 20.433 20.3228C20.5698 20.267 20.9111 20.1569 21.0693 20.0432C21.2273 19.9295 21.3217 19.7617 21.3816 19.6407C21.4413 19.5196 21.4297 19.445 21.4278 19.3164C21.4259 19.1878 21.42 19.0051 21.37 18.8691C21.3198 18.733 21.2446 18.6287 21.1271 18.5001C21.0094 18.3715 20.8726 18.2037 20.6644 18.0975C20.4561 17.9913 20.1477 17.9093 19.8776 17.8626C19.6078 17.8161 19.3166 17.8254 19.0449 17.8179C18.7729 17.8105 18.5956 17.8459 18.2466 17.8179C17.8976 17.79 17.3134 17.7191 16.951 17.6502C16.5885 17.5812 16.3263 17.4918 16.0718 17.4042C15.8809 17.3385 15.6412 17.278 15.5114 17.2039L15.461 17.169L15.4438 17.1758C15.3877 17.1949 15.4195 17.1563 15.3128 17.091C15.1706 17.0039 14.8604 16.7845 14.6839 16.6137C14.5075 16.443 14.3661 16.2628 14.2542 16.0663C14.1423 15.8699 14.0446 15.7039 14.0123 15.435C13.9801 15.1661 14.0164 14.7258 14.0607 14.453C14.1051 14.1802 14.1575 14.0321 14.2784 13.7983C14.3993 13.5645 14.5848 13.2683 14.7863 13.0501L14.8745 12.96Z" fill="#005C65"/>
<path fill-rule="evenodd" clip-rule="evenodd" d="M18.4029 7.88867H19.1171L19.32 8.66293L19.2711 11.2695H18.249L18.2 8.66293L18.4029 7.88867Z" fill="#005C65"/>
<path fill-rule="evenodd" clip-rule="evenodd" d="M19.348 7.06666L19.364 7.09056C19.363 7.09396 19.358 7.09196 19.351 7.08516L19.348 7.06666Z" fill="#005C65"/>
<path fill-rule="evenodd" clip-rule="evenodd" d="M17.9709 7.06036L17.9542 7.09146C17.9409 7.10516 17.9311 7.09926 17.9597 7.06966L17.9709 7.06036Z" fill="#005C65"/>
<path fill-rule="evenodd" clip-rule="evenodd" d="M17.356 6.89106C17.4663 6.89106 17.5554 6.94182 17.5554 7.00442C17.5554 7.06703 17.4663 7.11777 17.356 7.11777C17.2459 7.11777 17.1566 7.06703 17.1566 7.00442C17.1566 6.94182 17.2459 6.89106 17.356 6.89106ZM23.7395 14.4461C23.6953 14.1729 23.6431 14.0244 23.5223 13.7901C23.4017 13.5559 23.2166 13.2591 23.0155 13.0404C22.8143 12.8218 22.6173 12.6499 22.3156 12.4782C22.0141 12.3063 21.6521 12.1306 21.2056 12.0095C20.7592 11.8884 20.2203 11.8222 19.6371 11.7518C19.054 11.6816 18.2616 11.6542 17.7066 11.5878C17.1516 11.5214 16.7231 11.4799 16.3069 11.3535C15.8908 11.2271 15.479 11.0093 15.2095 10.8297C14.94 10.6501 14.7705 10.5492 14.6902 10.2758C14.6097 9.97898 14.5437 9.74291 14.6036 9.33862C14.6634 8.93433 14.7249 8.84715 14.8108 8.65918C14.8967 8.47122 15.0169 8.33124 15.1189 8.21115C15.2208 8.09107 15.3091 7.99644 15.4226 7.93836C15.5361 7.88029 15.6306 7.85176 15.8002 7.86259C15.9698 7.87342 16.2555 7.94845 16.4405 8.00315C16.6254 8.05786 16.712 8.174 16.9102 8.19054C17.1085 8.20706 17.4006 8.16142 17.6299 8.10233C17.8591 8.04324 18.1351 7.93003 18.2858 7.83627C18.4365 7.74264 18.518 7.64494 18.534 7.54006C18.5502 7.43504 18.4708 7.31626 18.3822 7.20656C18.2938 7.09671 18.152 6.98292 18.0032 6.88141C17.8543 6.77989 17.6916 6.66419 17.4894 6.59735C17.2871 6.5305 17.0067 6.48414 16.7895 6.48018C16.5724 6.47638 16.2068 6.52656 15.9333 6.5773C15.6598 6.62806 15.4302 6.71072 15.1487 6.78487C14.8671 6.85903 14.682 6.93318 14.497 7.0192C14.3121 7.10506 14.2316 7.14017 14.0386 7.30032C13.8455 7.46035 13.5117 7.74938 13.3388 7.97976C13.1658 8.21012 13.0772 8.38976 13.0009 8.68259C12.9245 8.97542 12.8762 9.42068 12.8802 9.73692C12.8842 10.0532 12.9084 10.2562 13.025 10.5803C13.1416 10.9045 13.3148 11.3692 13.5801 11.6816C13.8453 11.9939 14.2423 12.2476 14.6164 12.4546C14.9904 12.6616 15.3374 12.7984 15.8243 12.9233C16.3112 13.0482 16.9585 13.142 17.5376 13.2044C18.1168 13.2669 18.7604 13.2543 19.2993 13.2982C19.8382 13.3421 20.3331 13.3387 20.7713 13.4676C21.2095 13.5964 21.6801 13.8073 21.9283 14.0712C22.1765 14.3352 22.2969 14.5704 22.32 14.8197C22.3432 15.0689 22.3534 15.3212 22.0674 15.5665C21.7814 15.8118 20.8188 16.1879 20.8188 16.1879L20.6014 16.2928L20.605 16.2991C20.6125 16.3056 20.7144 16.347 20.7795 16.3732C20.909 16.4257 21.1135 16.4698 21.3746 16.6015C21.6358 16.7335 22.1003 17.0164 22.2661 17.135C22.3495 17.1947 22.2782 17.2264 22.4903 17.0895C22.6304 16.999 22.9417 16.7823 23.1177 16.6112C23.2937 16.4401 23.4348 16.2596 23.5465 16.0627C23.658 15.8659 23.7556 15.6996 23.7877 15.4302C23.8198 15.1608 23.7837 14.7195 23.7395 14.4461Z" fill="#005C65"/>
<path fill-rule="evenodd" clip-rule="evenodd" d="M20.4016 7.38145C20.2927 7.38145 20.2042 7.33215 20.2042 7.27132C20.2042 7.21049 20.2927 7.16116 20.4016 7.16116C20.5108 7.16116 20.5991 7.21049 20.5991 7.27132C20.5991 7.33215 20.5108 7.38145 20.4016 7.38145ZM24.8002 8.90194C24.7246 8.6174 24.637 8.44285 24.4657 8.21902C24.2945 7.99516 23.9639 7.71433 23.7728 7.55883C23.5817 7.40322 23.502 7.3691 23.319 7.28567C23.1357 7.20209 22.9527 7.13004 22.6738 7.05799C22.3951 6.98593 21.9173 6.90236 21.6465 6.85303C21.3758 6.80371 21.2643 6.75823 21.0492 6.76193C20.8342 6.76578 20.5566 6.81082 20.3563 6.87578C20.1561 6.94072 19.9949 7.05314 19.8478 7.15179C19.7003 7.25042 19.56 7.36099 19.4724 7.46773C19.3848 7.57432 19.3062 7.68973 19.3221 7.79178C19.338 7.89369 19.4186 7.98849 19.568 8.07959C19.7172 8.17069 19.9902 8.2807 20.2173 8.33811C20.4441 8.39553 20.7335 8.43987 20.9296 8.42382C21.126 8.40775 21.2117 8.2949 21.3947 8.24175C21.578 8.18859 21.8608 8.11569 22.0287 8.10517C22.1967 8.09464 22.2901 8.12237 22.4026 8.17879C22.5151 8.23522 22.6023 8.32717 22.7034 8.44385C22.8043 8.56053 22.9233 8.69655 23.0083 8.87919C23.0934 9.06183 23.1543 9.14654 23.2136 9.53938C23.2727 9.93222 23.2074 10.1616 23.1279 10.45C23.0481 10.7156 22.8803 10.8137 22.6135 10.9882C22.3468 11.1627 21.939 11.3744 21.5271 11.4972C21.3983 11.5355 21.2684 11.5658 21.1338 11.5914C20.9991 11.6168 20.86 11.6376 20.7127 11.6568L20.6756 11.6863C20.8621 11.7266 20.9601 11.7728 21.1505 11.8349C21.4045 11.9176 21.7269 12.0392 21.9759 12.1437C22.2246 12.2483 22.4687 12.3653 22.6439 12.4621C22.6439 12.4621 22.8207 12.5577 22.9381 12.6444L22.9806 12.6782L23.2009 12.5671C23.5713 12.366 23.9643 12.1194 24.2269 11.8159C24.4895 11.5124 24.6607 11.0608 24.7762 10.7459C24.8917 10.4309 24.9159 10.2337 24.9198 9.92639C24.9237 9.61911 24.8758 9.18647 24.8002 8.90194Z" fill="#005C65"/>
<path fill-rule="evenodd" clip-rule="evenodd" d="M24.3532 5.0721C24.3617 5.073 24.3766 5.0807 24.3999 5.0989L24.4453 5.1411L24.4168 5.1425C24.3649 5.1273 24.3286 5.0694 24.3532 5.0721Z" fill="#005C65"/>
<path fill-rule="evenodd" clip-rule="evenodd" d="M18.1455 3.6626H19.3743C19.499 3.6626 19.6 3.74997 19.6 3.85775V3.94314C19.6 4.05094 19.499 4.13831 19.3743 4.13831H19.074L19.1678 5.63477H18.3521L18.446 4.13831H18.1455C18.021 4.13831 17.92 4.05094 17.92 3.94314V3.85775C17.92 3.74997 18.021 3.6626 18.1455 3.6626Z" fill="#005C65"/>
<path fill-rule="evenodd" clip-rule="evenodd" d="M28.9107 3.37386C28.9292 3.38555 28.935 3.4125 28.904 3.46012L28.9015 3.46682L28.8462 3.44403C28.7866 3.38816 28.8738 3.3505 28.9107 3.37386Z" fill="#005C65"/>
<path fill-rule="evenodd" clip-rule="evenodd" d="M8.71777 3.42092L8.71427 3.41272L8.71777 3.42092Z" fill="#005C65"/>
<path fill-rule="evenodd" clip-rule="evenodd" d="M13.5676 5.07137C13.6259 5.06821 13.7782 5.15545 13.8662 5.17814C14.007 5.21449 14.1404 5.28497 14.3119 5.37581C14.4833 5.46663 14.6915 5.60591 14.8262 5.70279C14.9608 5.79968 15.12 5.9571 15.12 5.9571L15.0649 5.99343C14.9302 6.07216 14.6486 6.24776 14.3119 6.42942C13.9751 6.61108 13.4119 6.90172 13.0445 7.08338C12.6772 7.26504 12.4108 7.38614 12.1078 7.51935C11.8047 7.65256 11.4955 7.79487 11.2262 7.88265C10.9568 7.97045 10.9012 8.01144 10.6532 8.05383C10.4053 8.09621 10.2561 8.1171 9.92989 8.14931C9.65201 8.17676 9.06208 8.18216 8.73454 8.13675C8.40699 8.09134 7.98373 7.9934 7.73883 7.89956C7.49394 7.8057 7.10334 7.62267 7.36901 7.59202C7.8231 7.53961 8.66698 7.36495 9.2425 7.19237C9.818 7.0198 10.2756 6.8743 10.8358 6.62299C11.396 6.37171 12.2068 5.93626 12.6476 5.70312C13.0885 5.47001 13.1673 5.38726 13.3552 5.21671C13.4163 5.1612 13.5326 5.07328 13.5676 5.07137Z" fill="#005C65"/>
<path fill-rule="evenodd" clip-rule="evenodd" d="M12.8679 5.11057C12.7248 5.23756 12.5257 5.30098 12.1985 5.50433C11.7799 5.76441 11.1168 6.09526 10.4834 6.34327C9.85011 6.5913 9.05851 6.89853 8.39716 7.04141C7.66665 7.19925 7.15146 7.28952 6.51501 7.31709C5.87857 7.34466 5.0392 7.30051 4.57851 7.20676C3.97979 7.08492 4.0269 7.10345 3.75889 7.00468C3.5259 6.9188 2.97841 6.70141 3.09641 6.61873C3.21437 6.53605 4.03468 6.62275 4.50658 6.53701C4.97848 6.45127 5.37983 6.4395 6.16604 6.23982C6.16604 6.23982 6.68594 6.15067 7.40529 5.89808C7.83554 5.74699 8.38052 5.5399 8.92456 5.3546C8.92456 5.3546 9.62037 5.08172 9.96189 4.947C10.3034 4.81227 10.5102 4.6965 10.7089 4.60465C10.9076 4.51278 11.0174 4.45095 11.154 4.39584C11.2906 4.34072 11.3341 4.24579 11.5266 4.23049C11.5747 4.22667 11.6343 4.22533 11.6999 4.22647L11.8968 4.22992C12.0937 4.23337 12.1483 4.25575 12.309 4.30399C12.5232 4.36829 12.7162 4.49428 12.8466 4.58307C12.977 4.67189 13.1196 4.80462 13.16 4.85055" fill="#005C65"/>
<path fill-rule="evenodd" clip-rule="evenodd" d="M8.69542 3.38086L8.69851 3.38784C8.71542 3.42614 8.78571 3.58392 8.82706 3.65743C8.87431 3.74143 9.01875 3.90797 9.14161 3.98908C9.26449 4.07018 9.43254 4.13952 9.63731 4.20905C9.84208 4.27856 10.0336 4.27154 10.2069 4.30051C10.3802 4.32949 10.4684 4.32079 10.6038 4.3179C10.7393 4.31499 10.9283 4.28893 11.0196 4.28313C11.111 4.27734 11.2843 4.22229 11.152 4.28313C11.0196 4.34396 10.6668 4.49169 10.2258 4.64812C9.78475 4.80456 9.08853 5.04498 8.50573 5.22168C7.92294 5.39838 7.35901 5.59426 6.7321 5.74491C6.10519 5.89553 5.44738 5.98179 4.79529 6.0716C4.14318 6.16141 3.43517 6.20101 2.90907 6.1981C2.38296 6.19521 1.90287 6.12706 1.5721 6.05753C1.24131 5.98802 1.03959 5.9256 0.831675 5.83001C0.623761 5.73442 0.460445 5.58634 0.321836 5.45308C0.183227 5.31984 0.100801 5.2159 0 5.0305L1.68224 4.8393C1.68224 4.8393 2.61472 4.72054 3.06206 4.64812C3.50941 4.5757 3.74882 4.52645 4.36629 4.4048C4.98374 4.28313 6.16193 4.06008 6.76678 3.91813C7.37163 3.7762 7.68036 3.64004 7.99539 3.55314C8.31042 3.46623 8.54039 3.42567 8.65694 3.39672L8.69542 3.38086Z" fill="#005C65"/>
<path fill-rule="evenodd" clip-rule="evenodd" d="M17.7932 7.00543C17.7101 6.94785 17.6312 6.85075 17.3235 6.70225C17.0157 6.55372 16.4483 6.36285 15.9466 6.11431C15.445 5.86578 14.9802 5.52022 14.3586 5.18682C13.7369 4.8534 12.8228 4.30782 12.2165 4.11383C11.6102 3.91986 11.1403 4.11855 10.7433 4.08521C10.3463 4.05187 9.92469 4.03541 9.66308 3.96266C9.4015 3.88991 9.27551 3.75987 9.1124 3.65378C8.94927 3.54769 8.91072 3.34505 9.02768 3.19046C9.14461 3.03588 9.48978 2.85596 9.85293 2.65893C10.2161 2.46191 10.5885 2.27704 11.0717 2.05879C11.5548 1.84056 12.2812 1.50411 12.752 1.34953C13.2229 1.19495 13.5861 1.15252 13.8969 1.1313C13.9358 1.12866 13.973 1.12728 14.0087 1.127C14.0444 1.12673 14.0786 1.12755 14.1116 1.12931C14.3095 1.13983 14.4624 1.18359 14.6171 1.22222C14.8233 1.27376 14.971 1.33134 15.1341 1.44048C15.2972 1.54959 15.4942 1.7072 15.5958 1.87694C15.6973 2.04667 15.7096 2.20126 15.7435 2.45889C15.7773 2.71653 15.7281 3.09541 15.7989 3.42276C15.8697 3.75011 15.9712 4.15626 16.1682 4.423C16.3652 4.68972 16.5393 4.93887 16.7869 5.11727C17.042 5.30113 17.3491 5.49041 17.5385 5.61786C17.7302 5.74679 18.0631 5.91071 18.213 6.01395C18.3777 6.12731 18.3902 6.09006 18.458 6.20525C18.5257 6.32042 18.4245 6.45907 18.326 6.59545C18.2275 6.73186 18.074 6.88579 18.074 6.88579C18.0609 6.89374 17.9105 6.99425 17.8372 7.04347" fill="#005C65"/>
<path fill-rule="evenodd" clip-rule="evenodd" d="M23.9525 5.07137C23.8942 5.06821 23.7419 5.15545 23.6539 5.17814C23.513 5.21449 23.3797 5.28497 23.2082 5.37581C23.0368 5.46663 22.8287 5.60591 22.694 5.70279C22.5592 5.79968 22.4 5.9571 22.4 5.9571L22.4552 5.99343C22.59 6.07216 22.8716 6.24776 23.2082 6.42942C23.5451 6.61108 24.1082 6.90172 24.4755 7.08338C24.8429 7.26504 25.1093 7.38614 25.4124 7.51935C25.7154 7.65256 26.0245 7.79487 26.294 7.88265C26.5633 7.97045 26.6189 8.01144 26.8668 8.05383C27.1149 8.09621 27.264 8.1171 27.5902 8.14931C27.8681 8.17676 28.4579 8.18216 28.7856 8.13675C29.113 8.09134 29.5364 7.9934 29.7813 7.89956C30.026 7.8057 30.4167 7.62267 30.1511 7.59202C29.6968 7.53961 28.853 7.36495 28.2776 7.19237C27.702 7.0198 27.2444 6.8743 26.6843 6.62299C26.124 6.37171 25.3132 5.93626 24.8724 5.70312C24.4317 5.47001 24.3529 5.38726 24.165 5.21671C24.1039 5.1612 23.9876 5.07328 23.9525 5.07137Z" fill="#005C65"/>
<path fill-rule="evenodd" clip-rule="evenodd" d="M24.6519 5.11057C24.795 5.23756 24.9942 5.30098 25.3214 5.50433C25.74 5.76441 26.4031 6.09526 27.0364 6.34327C27.6697 6.5913 28.4614 6.89853 29.1227 7.04141C29.8533 7.19925 30.3684 7.28952 31.0049 7.31709C31.6412 7.34466 32.4808 7.30051 32.9415 7.20676C33.5402 7.08492 33.4931 7.10345 33.761 7.00468C33.994 6.9188 34.5415 6.70141 34.4235 6.61873C34.3056 6.53605 33.4851 6.62275 33.0133 6.53701C32.5415 6.45127 32.1401 6.4395 31.3539 6.23982C31.3539 6.23982 30.8339 6.15067 30.1146 5.89808C29.6843 5.74699 29.1393 5.5399 28.5952 5.3546C28.5952 5.3546 27.8996 5.08172 27.558 4.947C27.2164 4.81227 27.0096 4.6965 26.8109 4.60465C26.6122 4.51278 26.5024 4.45095 26.3659 4.39584C26.2292 4.34072 26.1857 4.24579 25.9933 4.23049C25.9451 4.22667 25.8855 4.22533 25.8199 4.22647L25.623 4.22992C25.4262 4.23337 25.3715 4.25575 25.2109 4.30399C24.9967 4.36829 24.8037 4.49428 24.6732 4.58307C24.5428 4.67189 24.4003 4.80462 24.36 4.85055" fill="#005C65"/>
<path fill-rule="evenodd" clip-rule="evenodd" d="M28.8246 3.38086L28.8215 3.38784C28.8047 3.42614 28.7343 3.58392 28.693 3.65743C28.6456 3.74143 28.5012 3.90797 28.3784 3.98908C28.2555 4.07018 28.0874 4.13952 27.8828 4.20905C27.6779 4.27856 27.4865 4.27154 27.3131 4.30051C27.1398 4.32949 27.0516 4.32079 26.9162 4.3179C26.7808 4.31499 26.5918 4.28893 26.5003 4.28313C26.409 4.27734 26.2358 4.22229 26.3681 4.28313C26.5003 4.34396 26.8533 4.49169 27.2943 4.64812C27.7353 4.80456 28.4316 5.04498 29.0143 5.22168C29.5971 5.39838 30.161 5.59426 30.7879 5.74491C31.4148 5.89553 32.0727 5.98179 32.7247 6.0716C33.3769 6.16141 34.0849 6.20101 34.6109 6.1981C35.1371 6.19521 35.6172 6.12706 35.9479 6.05753C36.2788 5.98802 36.4804 5.9256 36.6883 5.83001C36.8963 5.73442 37.0597 5.58634 37.1982 5.45308C37.3369 5.31984 37.4194 5.2159 37.5201 5.0305L35.8378 4.8393C35.8378 4.8393 34.9054 4.72054 34.458 4.64812C34.0107 4.5757 33.7713 4.52645 33.1538 4.4048C32.5364 4.28313 31.3582 4.06008 30.7532 3.91813C30.1484 3.7762 29.8397 3.64004 29.5246 3.55314C29.2096 3.46623 28.9796 3.42567 28.8632 3.39672L28.8246 3.38086Z" fill="#005C65"/>
<path fill-rule="evenodd" clip-rule="evenodd" d="M19.7268 7.00543C19.81 6.94785 19.8889 6.85075 20.1966 6.70225C20.5043 6.55372 21.0717 6.36285 21.5734 6.11431C22.075 5.86578 22.5398 5.52022 23.1613 5.18682C23.7831 4.8534 24.697 4.30782 25.3035 4.11383C25.9097 3.91986 26.3797 4.11855 26.7766 4.08521C27.1737 4.05187 27.5953 4.03541 27.8569 3.96266C28.1185 3.88991 28.2444 3.75987 28.4075 3.65378C28.5707 3.54769 28.6093 3.34505 28.4924 3.19046C28.3752 3.03588 28.0302 2.85596 27.6671 2.65893C27.3039 2.46191 26.9315 2.27704 26.4483 2.05879C25.9652 1.84056 25.2388 1.50411 24.7679 1.34953C24.297 1.19495 23.934 1.15252 23.6231 1.1313C23.5843 1.12866 23.547 1.12728 23.5114 1.127C23.4756 1.12673 23.4413 1.12755 23.4083 1.12931C23.2104 1.13983 23.0575 1.18359 22.9029 1.22222C22.6968 1.27376 22.5489 1.33134 22.3859 1.44048C22.2227 1.54959 22.0257 1.7072 21.9242 1.87694C21.8226 2.04667 21.8104 2.20126 21.7765 2.45889C21.7426 2.71653 21.7919 3.09541 21.721 3.42276C21.6504 3.75011 21.5488 4.15626 21.3519 4.423C21.1549 4.68972 20.9806 4.93887 20.7331 5.11727C20.478 5.30113 20.1709 5.49041 19.9814 5.61786C19.7897 5.74679 19.4569 5.91071 19.307 6.01395C19.1423 6.12731 19.1297 6.09006 19.0621 6.20525C18.9943 6.32042 19.0955 6.45907 19.194 6.59545C19.2926 6.73186 19.446 6.88579 19.446 6.88579C19.4592 6.89374 19.6095 6.99425 19.6827 7.04347" fill="#005C65"/>
<path fill-rule="evenodd" clip-rule="evenodd" d="M20.44 1.69043C20.44 2.62405 19.6878 3.38087 18.7599 3.38087C17.8321 3.38087 17.08 2.62405 17.08 1.69043C17.08 0.756841 17.8321 0 18.7599 0C19.6878 0 20.44 0.756841 20.44 1.69043Z" fill="#005C65"/>
<path fill-rule="evenodd" clip-rule="evenodd" d="M76.5601 8.01118C81.7931 8.01118 87.0001 3.47998 87.0001 3.47998C87.0001 3.47998 92.207 8.01118 97.4401 7.98558C97.4401 12.44 97.2318 16.7152 95.2792 20.0688C93.3265 23.4224 89.6296 25.8544 87.0001 26.52C84.3445 25.9312 80.4913 23.5504 78.5127 20.12C76.5861 16.7664 76.5601 12.44 76.5601 8.01118ZM86.7918 20.4016L92.4153 12.9008C92.7538 12.44 92.6496 11.8 92.207 11.4672C91.7384 11.1088 91.0875 11.2112 90.7491 11.672L85.8545 18.2L83.5374 15.896C83.1209 15.512 82.47 15.512 82.0534 15.896C81.6629 16.3056 81.6629 16.9456 82.0534 17.3552L85.2036 20.504C85.4119 20.7088 85.6723 20.8112 85.9587 20.8112H86.0368C86.3231 20.7856 86.6095 20.632 86.7918 20.4016Z" fill="#005C65"/>
<path d="M106.122 7.35424C106.973 7.35424 107.749 7.60088 108.45 8.09416L107.823 9.08223C107.3 8.7243 106.733 8.54684 106.122 8.54984C105.794 8.54984 105.539 8.60549 105.355 8.71678C105.172 8.82506 105.08 8.97846 105.08 9.17697C105.08 9.37549 105.199 9.53039 105.436 9.64168C105.674 9.75598 106.062 9.89584 106.6 10.0613C107.139 10.2237 107.552 10.3936 107.841 10.5711C108.434 10.9411 108.73 11.4614 108.73 12.1321C108.73 12.5081 108.643 12.836 108.468 13.1157C108.297 13.3924 108.071 13.603 107.791 13.7473C107.262 14.0211 106.671 14.1579 106.018 14.1579C105.369 14.1579 104.8 14.0436 104.313 13.815C103.826 13.5864 103.459 13.3488 103.212 13.1022L103.943 12.1231C104.59 12.6585 105.295 12.9262 106.059 12.9262C106.387 12.9262 106.667 12.8676 106.898 12.7503C107.133 12.6299 107.25 12.4299 107.25 12.1502C107.25 11.8675 107.061 11.6449 106.682 11.4825C106.531 11.4193 106.292 11.3396 105.964 11.2433C105.639 11.1471 105.399 11.0719 105.242 11.0178C105.089 10.9606 104.901 10.8764 104.678 10.7651C104.459 10.6538 104.289 10.5365 104.169 10.4132C104.048 10.2899 103.941 10.1289 103.848 9.93043C103.758 9.72891 103.713 9.50182 103.713 9.24916C103.713 8.65061 103.94 8.1859 104.394 7.85504C104.851 7.52117 105.427 7.35424 106.122 7.35424ZM114.907 7.5302V8.78896H111.676V10.1289H114.537V11.293H111.676V12.7412H115.001V14H110.197V7.5302H114.907ZM117.172 8.31523C117.837 7.67457 118.652 7.35424 119.617 7.35424C120.586 7.35424 121.378 7.65051 121.995 8.24305L121.246 9.29879C120.741 8.89273 120.204 8.68971 119.635 8.68971C119.067 8.6867 118.598 8.8807 118.228 9.27172C117.861 9.66273 117.677 10.1575 117.677 10.7561C117.677 11.3546 117.864 11.8479 118.237 12.2359C118.61 12.6239 119.089 12.8179 119.676 12.8179C120.262 12.8179 120.832 12.5743 121.386 12.087L122.103 13.1518C121.42 13.8225 120.593 14.1579 119.622 14.1579C118.653 14.1579 117.837 13.8361 117.172 13.1924C116.507 12.5487 116.175 11.7351 116.175 10.7516C116.175 9.76801 116.507 8.9559 117.172 8.31523ZM129.097 7.5302V11.3742C129.097 12.2434 128.841 12.9247 128.33 13.418C127.818 13.9113 127.143 14.1579 126.304 14.1579C125.465 14.1579 124.79 13.9113 124.278 13.418C123.767 12.9247 123.51 12.2434 123.507 11.3742V7.5302H124.982V11.3742C124.982 11.8073 125.095 12.1562 125.32 12.4209C125.546 12.6856 125.872 12.8179 126.299 12.8179C126.727 12.8179 127.053 12.6856 127.278 12.4209C127.504 12.1562 127.617 11.8073 127.617 11.3742V7.5302H129.097ZM133.586 8.69422H132.332V10.4132H133.586C133.893 10.4132 134.129 10.3335 134.295 10.1741C134.463 10.0146 134.547 9.80711 134.547 9.55145C134.547 9.29578 134.463 9.08975 134.295 8.93334C134.129 8.77393 133.893 8.69422 133.586 8.69422ZM133.726 7.5302C134.397 7.5302 134.952 7.71217 135.391 8.07611C135.833 8.44006 136.054 8.92732 136.054 9.53791C136.054 10.0011 135.925 10.3906 135.666 10.7064C135.407 11.0223 135.056 11.2479 134.61 11.3832L136.266 14H134.61L133.108 11.505H132.332V14H130.852V7.5302H133.726ZM142.384 7.5302V8.78896H139.154V10.1289H142.014V11.293H139.154V12.7412H142.479V14H137.674V7.5302H142.384ZM106.122 16.3542C106.973 16.3542 107.749 16.6009 108.45 17.0942L107.823 18.0822C107.3 17.7243 106.733 17.5468 106.122 17.5498C105.794 17.5498 105.539 17.6055 105.355 17.7168C105.172 17.8251 105.08 17.9785 105.08 18.177C105.08 18.3755 105.199 18.5304 105.436 18.6417C105.674 18.756 106.062 18.8958 106.6 19.0613C107.139 19.2237 107.552 19.3936 107.841 19.5711C108.434 19.9411 108.73 20.4614 108.73 21.1321C108.73 21.5081 108.643 21.836 108.468 22.1157C108.297 22.3924 108.071 22.603 107.791 22.7473C107.262 23.0211 106.671 23.1579 106.018 23.1579C105.369 23.1579 104.8 23.0436 104.313 22.815C103.826 22.5864 103.459 22.3488 103.212 22.1022L103.943 21.1231C104.59 21.6585 105.295 21.9262 106.059 21.9262C106.387 21.9262 106.667 21.8676 106.898 21.7503C107.133 21.6299 107.25 21.4299 107.25 21.1502C107.25 20.8675 107.061 20.6449 106.682 20.4825C106.531 20.4193 106.292 20.3396 105.964 20.2433C105.639 20.1471 105.399 20.0719 105.242 20.0178C105.089 19.9606 104.901 19.8764 104.678 19.7651C104.459 19.6538 104.289 19.5365 104.169 19.4132C104.048 19.2899 103.941 19.1289 103.848 18.9304C103.758 18.7289 103.713 18.5018 103.713 18.2492C103.713 17.6506 103.94 17.1859 104.394 16.855C104.851 16.5212 105.427 16.3542 106.122 16.3542ZM112.755 16.3542C113.606 16.3542 114.382 16.6009 115.083 17.0942L114.456 18.0822C113.932 17.7243 113.365 17.5468 112.755 17.5498C112.427 17.5498 112.171 17.6055 111.988 17.7168C111.804 17.8251 111.712 17.9785 111.712 18.177C111.712 18.3755 111.831 18.5304 112.069 18.6417C112.306 18.756 112.694 18.8958 113.233 19.0613C113.771 19.2237 114.185 19.3936 114.474 19.5711C115.066 19.9411 115.362 20.4614 115.362 21.1321C115.362 21.5081 115.275 21.836 115.101 22.1157C114.929 22.3924 114.704 22.603 114.424 22.7473C113.895 23.0211 113.304 23.1579 112.651 23.1579C112.001 23.1579 111.433 23.0436 110.945 22.815C110.458 22.5864 110.091 22.3488 109.845 22.1022L110.575 21.1231C111.222 21.6585 111.927 21.9262 112.691 21.9262C113.019 21.9262 113.299 21.8676 113.531 21.7503C113.765 21.6299 113.883 21.4299 113.883 21.1502C113.883 20.8675 113.693 20.6449 113.314 20.4825C113.164 20.4193 112.925 20.3396 112.597 20.2433C112.272 20.1471 112.031 20.0719 111.875 20.0178C111.721 19.9606 111.533 19.8764 111.311 19.7651C111.091 19.6538 110.921 19.5365 110.801 19.4132C110.681 19.2899 110.574 19.1289 110.481 18.9304C110.391 18.7289 110.345 18.5018 110.345 18.2492C110.345 17.6506 110.572 17.1859 111.027 16.855C111.484 16.5212 112.06 16.3542 112.755 16.3542ZM118.309 16.5302V21.7412H121.449V23H116.829V16.5302H118.309Z" fill="#005C65"/>
</svg>
